# xmcd
#
# Track frame offsets:
#	150
#	17519
#	33411
#	44168
#	63310
#	80988
#	97631
#	114729
#	128560
#	143344
#	153321
#	165842
#	177336
#	197562
#	215635
#	225174
#	236897
#	253659
#	265106
#	276699
#
# Disc length: 3847 seconds
# Revision: 0
# Processed by: cddbd v1.5.2PL0 Copyright (c) Steve Scherf et al.
# Submitted via: dBpowerAMP V12.0
#
DISCID=100f0514
DTITLE=Various Artist - Ultimate Country
DYEAR=1900
DGENRE=Country
TTITLE0=Dr. Hook and The Medicine Show - Sylvias Mother
TTITLE1=Willie Nelson - Always On My Mind 
TTITLE2=Hank Locklin  - Please Help Me Im Falling
TTITLE3=Lonestar - I'm Already There
TTITLE4=Kenny Chesney - I Lost It
TTITLE5=Keith Whitley - When You Say Nothing At All
TTITLE6=Brad Paisley - We Danced
TTITLE7=John Hartford - Gentle On My Mind
TTITLE8=George Jones - He Stopped Loving Her Today
TTITLE9=Tommy Mclain - Tender Years
TTITLE10=Mickey Gilley - Just Out Of Reach (Of My Two Griply Arms)
TTITLE11=Roy Frushay - Cheating Traces
TTITLE12=Roy Head - High Sheriff
TTITLE13=Sir Douglas Quintet - Wolverton Mountain
TTITLE14=Doug Kershaw - Down South In New Orleans
TTITLE15=Lowell Fulson - Blood Sweat and Tears
TTITLE16=Dr. John - The Time Had Come
TTITLE17=Jimmy Heap - Wild Side Of Life 
TTITLE18=Porter Wagoner and Dolly Parton - The Last Thing On My Mind
TTITLE19=Skeeter Davis - The End Of The World
EXTD=
EXTT0=
EXTT1=
EXTT2=
EXTT3=
EXTT4=
EXTT5=
EXTT6=
EXTT7=
EXTT8=
EXTT9=
EXTT10=
EXTT11=
EXTT12=
EXTT13=
EXTT14=
EXTT15=
EXTT16=
EXTT17=
EXTT18=
EXTT19=
PLAYORDER=
